<svg width="94" height="36" viewBox="0 0 94 36" fill="none" xmlns="http://www.w3.org/2000/svg">
<rect width="94" height="36" rx="3" fill="#01151C"/>
<path d="M13.44 23.5V13.004H16.56C17.2747 13.004 17.8987 13.0893 18.432 13.26C18.976 13.4307 19.3973 13.7027 19.696 14.076C20.0053 14.4493 20.16 14.9453 20.16 15.564C20.16 16.0867 20.0267 16.5613 19.76 16.988C19.504 17.404 19.1253 17.692 18.624 17.852V17.916C19.2533 18.0333 19.7653 18.3 20.16 18.716C20.5653 19.132 20.768 19.7027 20.768 20.428C20.768 21.1107 20.5973 21.6813 20.256 22.14C19.9253 22.5987 19.4613 22.94 18.864 23.164C18.2667 23.388 17.5733 23.5 16.784 23.5H13.44ZM14.768 17.468H16.32C17.216 17.468 17.8613 17.3133 18.256 17.004C18.6507 16.6947 18.848 16.2733 18.848 15.74C18.848 15.132 18.64 14.7 18.224 14.444C17.8187 14.188 17.2053 14.06 16.384 14.06H14.768V17.468ZM14.768 22.444H16.592C17.4987 22.444 18.2027 22.2787 18.704 21.948C19.2053 21.6067 19.456 21.084 19.456 20.38C19.456 19.7293 19.2053 19.2547 18.704 18.956C18.2133 18.6467 17.5093 18.492 16.592 18.492H14.768V22.444ZM24.9503 23.692C24.1289 23.692 23.5263 23.436 23.1423 22.924C22.7583 22.4013 22.5663 21.644 22.5663 20.652V15.724H23.8943V20.476C23.8943 21.2013 24.0063 21.7293 24.2303 22.06C24.4649 22.3907 24.8383 22.556 25.3503 22.556C25.7556 22.556 26.1129 22.4547 26.4223 22.252C26.7423 22.0387 27.0836 21.7027 27.4463 21.244V15.724H28.7583V23.5H27.6703L27.5583 22.284H27.5103C27.1476 22.7107 26.7636 23.052 26.3583 23.308C25.9529 23.564 25.4836 23.692 24.9503 23.692ZM33.7894 23.692C32.9574 23.692 32.376 23.452 32.0454 22.972C31.7254 22.492 31.5654 21.868 31.5654 21.1V16.796H30.4134V15.804L31.6294 15.724L31.7894 13.548H32.8934V15.724H34.9894V16.796H32.8934V21.116C32.8934 21.596 32.9787 21.9693 33.1494 22.236C33.3307 22.492 33.6454 22.62 34.0934 22.62C34.232 22.62 34.3814 22.5987 34.5414 22.556C34.7014 22.5027 34.8454 22.4547 34.9734 22.412L35.2294 23.404C35.016 23.4787 34.7814 23.5427 34.5254 23.596C34.28 23.66 34.0347 23.692 33.7894 23.692ZM38.8431 23.692C38.0111 23.692 37.4298 23.452 37.0991 22.972C36.7791 22.492 36.6191 21.868 36.6191 21.1V16.796H35.4671V15.804L36.6831 15.724L36.8431 13.548H37.9471V15.724H40.0431V16.796H37.9471V21.116C37.9471 21.596 38.0325 21.9693 38.2031 22.236C38.3845 22.492 38.6991 22.62 39.1471 22.62C39.2858 22.62 39.4351 22.5987 39.5951 22.556C39.7551 22.5027 39.8991 22.4547 40.0271 22.412L40.2831 23.404C40.0698 23.4787 39.8351 23.5427 39.5791 23.596C39.3338 23.66 39.0885 23.692 38.8431 23.692ZM44.5666 23.692C43.9373 23.692 43.3453 23.532 42.7906 23.212C42.2466 22.892 41.804 22.428 41.4626 21.82C41.132 21.212 40.9666 20.4813 40.9666 19.628C40.9666 18.7533 41.132 18.012 41.4626 17.404C41.804 16.796 42.2466 16.332 42.7906 16.012C43.3453 15.692 43.9373 15.532 44.5666 15.532C45.2066 15.532 45.7986 15.692 46.3426 16.012C46.8866 16.332 47.324 16.796 47.6546 17.404C47.996 18.012 48.1666 18.7533 48.1666 19.628C48.1666 20.4813 47.996 21.212 47.6546 21.82C47.324 22.428 46.8866 22.892 46.3426 23.212C45.7986 23.532 45.2066 23.692 44.5666 23.692ZM44.5666 22.604C45.2386 22.604 45.7773 22.332 46.1826 21.788C46.5986 21.2333 46.8066 20.5133 46.8066 19.628C46.8066 18.732 46.5986 18.0067 46.1826 17.452C45.7773 16.8973 45.2386 16.62 44.5666 16.62C43.9053 16.62 43.3666 16.8973 42.9506 17.452C42.5346 18.0067 42.3266 18.732 42.3266 19.628C42.3266 20.5133 42.5346 21.2333 42.9506 21.788C43.3666 22.332 43.9053 22.604 44.5666 22.604ZM50.1745 23.5V15.724H51.2625L51.3745 16.844H51.4225C51.7958 16.4707 52.1905 16.1613 52.6065 15.916C53.0225 15.66 53.4972 15.532 54.0305 15.532C54.8518 15.532 55.4492 15.7933 55.8225 16.316C56.2065 16.828 56.3985 17.58 56.3985 18.572V23.5H55.0865V18.748C55.0865 18.0227 54.9692 17.4947 54.7345 17.164C54.4998 16.8333 54.1265 16.668 53.6145 16.668C53.2198 16.668 52.8625 16.7693 52.5425 16.972C52.2332 17.1747 51.8812 17.4733 51.4865 17.868V23.5H50.1745Z" fill="white"/>
<path d="M72.0001 24.3461L71.1091 23.4679L75.952 18.625H65.6539V17.375H75.952L71.1091 12.5321L72.0001 11.6539L78.3462 18L72.0001 24.3461Z" fill="#32A4CA"/>
</svg>
